<?xml version="1.0" encoding="UTF-8"?>
<svg id="Layer_1" data-name="Layer 1" xmlns="http://www.w3.org/2000/svg" xmlns:xlink="http://www.w3.org/1999/xlink" viewBox="0 0 1080 1080">
  <defs>
    <style>
      .cls-1 {
        fill: #d19743;
      }

      .cls-2 {
        fill: #52070b;
      }

      .cls-3 {
        fill: url(#Degradado_sin_nombre_24);
      }
    </style>
    <radialGradient id="Degradado_sin_nombre_24" data-name="Degradado sin nombre 24" cx="657.93" cy="536.04" fx="657.93" fy="536.04" r="441.88" gradientUnits="userSpaceOnUse">
      <stop offset=".24" stop-color="#fefaa4"/>
      <stop offset=".81" stop-color="#d19743"/>
    </radialGradient>
  </defs>
  <rect class="cls-2" x="-80.22" y="-23.03" width="1328.92" height="1150.35"/>
  <g>
    <path class="cls-1" d="M919.87,540.71c0,7.78,7.49,8.74,5.85,15.11l-17.19.04-63.4-91.22-.84,73.75c-.05,4.7,1.42,8.63,4.85,11.58.99,1.07,1.5,2.26,1.42,3.33-.08.99-1.01,2.44-2.48,2.45l-12.36.1c-2.26-5.77,6.1-8.03,6.08-15.03l-.17-76.11c-.02-8.22-8.28-8-7.13-12.23.59-2.18,1.88-2.82,4.59-2.72l17.89.65,10.06,15.05,22.76,32.87c8.7,12.57,15.55,25.63,26.83,37.41l.32-71.08c.02-3.64-9.21-14.04-4.49-14.15l13.75-.32c1.43,5.6-6.32,8.64-6.32,15.81l-.02,74.71ZM786.71,522.34c-1.39-9.78-9.52-16.3-18.19-21.12l-29.46-16.38c-5.51-3.06-7.92-8.39-7.13-14.71.54-4.32,3.22-9.59,8.59-12.42,14.45-7.6,33.56-1.94,43.59,10.92.32.41-.04,2.47.27,2.7s1.14-.09,2.07-.27l-.15-20.54c-3.55,4.68-6.61,5.9-10.87,4.05-14.9-6.45-30.06-7.16-44.19.31-9.6,5.07-14.43,15.6-13.65,25.18.88,10.71,6.17,18.74,15.77,23.81l26.03,13.73c4.27,2.25,8.74,4.96,11.39,9.24,5.05,8.19.79,19.8-8.97,22.79-14.22,4.37-37.48,0-43.04-16.64-1.15,8.25-.76,14.78-.47,22.91,4.7-5.03,7.84-6.26,12.96-4.27,12.42,4.84,26.53,6.5,39.3,1.34s18.06-17.16,16.14-30.64ZM559.68,454.49c16.56,0,27.26,16.08,33.76,31.54,2.95-6.79,4.49-16.02.56-21.84-6.9-10.23-28.28-16.61-41.7-14.22-28.86,5.14-48.13,31.19-45.01,59.87s30.26,50.79,60.3,45.75c10.43-1.75,22.08-5.84,27.31-15.66,2.74-5.14,1.26-13.26-.23-19.55-5.35,7.43-7.29,15.47-13.56,21.19-7.57,6.9-15.74,10.93-25.93,9.52-27.55-3.82-42.52-47.7-23.5-79.32,5.97-9.93,16.34-17.28,28-17.28ZM822.98,550.81c-3.26-2.85-4.69-6.8-4.7-11.2l-.11-70.07c-.01-7.2,2.12-12.06,7.48-18.87l-27.44-.46c-2.63,4.72,4.38,7.2,4.37,15.73l-.09,74.77c-.01,9.22-6.43,10.92-5.12,15.28l25.67-.2c1.53-.01,1.25-3.83-.06-4.98ZM707.47,555.79c1.58-3.07-1.54-5.09-3.91-6.41-5.85-3.25-7.41-10.11-9.73-15.72l-11.44-27.67,7.01-1.02c2.18-.32,2.72-2.04,2.65-3.18-.29-4.35-7.04.48-12.09-1.14l-23.49-51.9-38.83,91.79c-2.35,5.56-7.16,8.24-12,11.08-1.04.61-.82,4.3.21,4.29l15.52-.17-1.44-9.9c8.8-19.29,26.08-30.61,46.15-36.6l16.59,39.49c-1.31,2.12-3.22,5.44-1.49,7.16l26.29-.12ZM664.2,504.52c-15.04,5.58-26.92,13.41-38.43,24.7l24.26-57.2,14.16,32.5ZM1025.14,540.56c18.28-20.67,20.07-52.34,1.08-73.43-16.26-18.07-43.72-22.77-64.5-10.14-22.17,13.48-30.9,40.7-22.85,64.82,6,17.98,20.78,29.64,38.83,33.66,12.23,2.73,27.79-.4,33.99-4.99l13.43-9.92ZM995.46,550.44c-29,1.45-49.32-34.58-43.44-66.67,2.37-12.94,10.2-24.65,23.4-27.81,10.59-2.54,21.75,1.74,29.93,9.37,16.88,15.75,23.73,40.84,16.97,63.06-3.62,11.9-13.85,21.39-26.86,22.04ZM814.59,433.99c4.21,3.65,7.3,3.11,11.21,1.28,7.16-3.34,7.91-14.81.79-23.52l-16.24-19.86-17.13,22.15c-3.72,4.81-5.09,11.14-2.54,16.67,1.47,3.19,4.53,4.84,7.17,5.65,2.85.87,5.49-.6,8.9-2.68,1.12,2.71,0,4.22-.92,7.21,3.36.79,5.39.63,9.53.43l-.78-7.33ZM825.22,425.92c-4.29,7.17-11.33.05-19.67,3.13-2.8,1.04-6.75-.23-8.28-1.92-6.41-7.11,4.91-18.23,13.38-27.72l13.45,17.22c1.97,2.53,2.8,6.48,1.12,9.29ZM88.42,550.62c-12.87-1.35-21.54-10.89-26.42-22.24-8.48-19.72-7.24-41.78,5.43-59.28,6.7-9.25,17.92-15.57,29.03-14.38,6.73.72,11.02,4.41,14.92,8.73,4.85,5.37,5.85,13.12-.09,18.08-5.35,4.47,7.45,6.09,20.99,4.26,4.95-24.53-28.83-41.42-51.03-35.28-22.79,6.31-40.26,26.16-40.9,50.25-.38,14.18,3.15,27.82,12.81,37.75,5.3,5.44,10.39,11.28,17.41,13.71,15.73,5.45,32.04,5.67,46.62-1.77l1.09,5.37,15.41-.17.1-55.74-39.76.15-.41,5.05,24.61.53-1.92,32.55c-3.72,10.7-18.19,13.44-27.89,12.42ZM439.04,470c.02-11.42,6.18-13.24,6.66-19.98l-13.97.19c-1.38.02-2,2.18-1.96,3.13.14,3.22,6.51,5.5,6.43,13.77l-.68,68.61-24.25-33.78-35.21-51.51-20.45-.18c-1.28-.01-2.36,1.09-2.47,1.77-.44,2.72,7.82,5.05,7.82,13.89l.05,73.72c0,8.13-8.03,11.53-6.1,16.32l14.39-.44c3.19-5.25-5.9-7.21-5.79-14.69l1.1-75.37,63.15,90.2c5.51.55,10.93.98,16.4-.13,5.83-1.18-5.27-7.44-5.26-14.81l.14-70.72ZM316.18,555.89h26.4s.52-5.11.52-5.11c-5.28-1.38-8.76-4.91-10.82-9.83l-14.04-33.45c3.39-3.6,10.36-1.23,10.02-5.75-.33-4.45-6.35-.25-12.5-.8l-23.27-52.51-11.34,25.23-28.6,67.89c-3.44,8.17-14.95,9.05-11.9,14.29l16.33.07c-2.99-7.48-1.71-12.6,2.41-18.15,10.18-13.72,24.84-23.53,41.6-28.11,3.22,3.83,3.6,7.85,5.28,11.69,3.87,8.83,8.85,17.08,10.91,27.21l-1.01,7.34ZM300.11,504.59c-14.96,4.7-26.26,12.76-38.26,23.7l23.61-56.38,14.65,32.68ZM198.98,555.93l31.13-.21c.51-1.72.46-3.08.34-4.62-13.34-1.48-22.43-23.64-30.48-38.15,17.42-4.34,27.68-18.88,25.82-36.56-1.51-14.33-15.77-27.03-28.83-27.07l-51.52-.16c-1.74,0-2.42,3.78-2.04,5,.8,2.55,5.87,4.62,5.89,11.77l.13,71.25c.02,12.54-7.14,13.33-5.8,18.85l26.9-.46c1.65-.03.28-4.83-1.38-5.91-2.93-1.91-3.86-5.51-3.81-8.75l.31-20.68c5.32-2.53,10.97-1.55,17.19-.97l16.92,29.46-.77,7.2ZM204.04,461.51c9.33,14.13,7.48,37.17-6.12,46.24-9.43,6.29-20.77,7.92-32.53,6.55l.04-50.76c0-5.88,4.4-9.57,9.94-9.67l13.37-.26c6.42-.13,11.83,2.67,15.29,7.91ZM637.78,682.64c.28-3.2-5.87-2.94-5.85-14.95l.06-62.76,6.4-11.18c-4.03-.7-7.92-1.01-12.08-.34-2.07.33-2.53,4.48-1.7,5.28l4.23,4.09c1.02,21.28,1.89,42.2.04,64.76l-52.15-74.36-17.54.27c-2.9,5.24,5.01,5.77,5.03,11.86l.23,67.14c.02,5.81-6.6,8.09-5.08,12.46,5.77,1.84,12.29.79,12.76-2.13.54-3.33-5.27-5.25-5.2-11.48l.71-65.19,54.98,78.87c8.16.84,14.87,1.26,15.18-2.35ZM789.66,638.39l-27.92-15.51c-4.1-2.28-5.61-7.04-5.32-11.27.26-3.71,1.97-7.53,5.32-10.18,11.78-9.34,33.86-2.78,41.03,11.11l.55-19.07c-3.92,4.18-6.57,5.13-10.63,3.39-9.39-4.03-19.83-4.98-29.69-2.56-10.07,2.47-16.73,10.12-18.66,19.48-1.92,9.26,2.37,20.03,11.14,25.03l30.76,17.53c4.67,2.66,6.53,7.6,5.44,12.91-2.85,13.81-23.27,15.03-37.36,7.03-4.04-2.3-6.58-5.57-9.06-9.59-2.5,6.06-1.75,12.16-.05,18.17,3.03-4.05,6.9-4.59,11.15-3.54l14.65,3.64c12.4,3.08,32.1-4.95,32.8-21.89.45-10.97-4.69-19.41-14.15-24.66ZM544.73,672.56l.07-60.39c0-6.99.51-12.11,6.28-18.63l-25.69-.03,4.85,10.72.14,69.31c0,4.26-5.88,8.61-3.94,11.22.42.57,1.93,1.19,3.09,1,10.81-1.82,17.87.88,19.55-1.86s-4.35-4.72-4.35-11.33ZM254.36,646.21c-1.92,5.74.32,10.58-2.27,14.84-9.5,15.64-32.14,20.19-51.14,19.62,18.43,6.74,45.71,1.42,53.56-18.39,2.05-5.17.94-11.27-.15-16.07ZM103.44,642.21c-1.85-.46-3.38.67-4.59,2.11-1.63,1.94-1.49,3.55-.9,4.91.99,2.27,2.58,2.74,4.36,2.75,2.44,0,3.85-.7,3.85-4.15,0-2.9-.96-5.19-2.71-5.62ZM980.75,653.08c.94-2.28.05-6.29-2.85-6.75-2.72-.42-4.29,2.06-5.1,3.64s-1.43,4,.89,5.68c3.06,2.2,6.09-.22,7.06-2.57ZM165.14,627.23c-2.08.09-3.26,1.05-3.64,3.5-.15.99-.65,3.39-.07,4.3.47.74,2.2.79,3.55.77.9-.01,1.45-1.97,2.07-3.51,1.1-2.75-.21-5.13-1.92-5.06ZM250.93,639.52v.82l.02.79.02-.79v-.82l-.02-.79-.02.79ZM166.96,636.91l.6.6.6-.6-.6-.6-.6.6ZM924.72,674.37l.6.6.6-.6-.6-.6-.6.6ZM191.76,659.82l11.8-1.44c17.78-2.17,37.79-6.62,38.54-23.29l7.19,3.88c.11-5.93-6.55-6.24-9.09-9.13-5.04-5.73-9.4-9.61-17.84-9.11-7.4.44-14.43,2.8-21.07,6.54l-37.39,21.06c-5.59-.52-10.21-7.22-10.49-11.42-.41-6.06,1.52-11.7,6.98-14.43,4.15-2.07,8.84-2.24,11.01,2.63,1.29,2.89.05,6.65-2.75,10.32,5.81-1.67,6.34-10.03,3.83-14.32-3.63-6.22-11.96-5.47-16.6-.61-9.06,9.48-9.29,22.75,1.81,32.02-4.62,4.13-10.55,6.35-16.42,9.05-15.31,7.03-30.36,10.59-47.11,8.06-5.93-.89-10.78-1.73-16.51-4.44-7.1-3.36-14.02-10.22-12.1-19.01s9.76-14.36,17.49-16.52l7.75-2.17c9.27-2.6,18.75.19,23.94,8.31-.64-7-6.21-10.6-12.22-12.4-13.2-3.94-27.64,1.54-36.4,12.29-9.99,12.27-4.13,27.42,7.97,35.52,36.27,24.24,65.48,11.3,99.59-12.11l18.11.73ZM201.02,646.51c12.26-4.57,28.09-17.74,35.01-12.11,1.83,1.49,1.89,5.12-.2,6.84-11.93,9.81-37,12.34-53.64,11.47l29.85-20.74c5.49-3.82,12.05-6.28,18.29-4.55-11.84,3.71-22.42,11.51-29.31,19.1ZM169.25,657.22c-16.23,16.96-47.85,27.25-67.75,19.35,25.11,1.16,39.71-7.89,58.91-20.28,2.39-1.54,6.98.52,8.84.93ZM177.58,651.35c-2.44,1.7-6.85-.02-8.52-1.39,12.88-9.26,24.86-18.44,40.95-21.21l-32.43,22.61ZM429.21,685.7c1.69.03,3.06-.8,3.43-1.74,1.44-3.62-5.08-2.81-9.25-12.92l-11.66-28.27c3.3-1.88,5.91-1.45,8.89-4.51-3.39-2.19-7.41-2.32-11.8-.84l-18.47-43.43c-.35-.82-1.95-.95-2.4-.59-.3.24-.47,1.35-.77,2.06l-33.26,77.92-10.32,11.22c4.97,2.09,9.89,1.8,14.6-.02-5.86-17.42,20.07-34.88,38.19-39.68,3.31,3.51,3.12,7.53,4.78,11.03l6.66,14.04c2.28,4.8,3.41,8.93,1.54,15.33l19.82.39ZM395.55,640.94c-12.86,3.85-22.22,10.38-32.89,19.79l20.19-47.43,12.7,27.64ZM730.27,685.88c1.92.07,3.88-.25,4.7-1.8.45-.86.75-2.23.52-3.72-3.55-.2-6.48-2.01-7.91-5.3l-12.05-27.82c-.76-1.75-1.81-3.52-.41-4.96s5.36-.96,6.29-3.12c1.87-4.38-5.73-.88-8.48-1.71-1.38-.41-2.36-2.11-3.15-3.91l-18.2-41.4-32.27,74.71c-1.93,4.46-3.36,9.27-7.75,11.87-2,1.18-5.95,2.68-4.77,6.02,4.07,1.47,9.98,1.1,14.05-.33l-1.11-9.43c8.55-14.78,22.16-25.6,39.28-30.13l13.16,30.2c1.36,3.13.44,6.15-.59,10.11l18.7.72ZM697.78,640.54c-13.59,4.73-23.29,11.72-33.24,21.6l20.87-49.07,12.37,27.46ZM488.29,675.11c1.8,2.9,1.97,5.88,1.49,9.95l22.51.37c2.2.04,5.51-2.07,4.57-4.42-2.71-1.16-6.69-1.98-9.05-4.96-6.82-8.63-12.66-17.97-16.29-28.51,13.56-3.84,22.03-14.87,22.11-27.72.07-11.68-9.05-25.8-22.05-25.99l-49.72-.73c-.18,5.08,3.49,6.39,4.23,9.8l.02,74.98c-2.46,1.7-4.73,5.54-3.19,7.22,7.34,1.57,15.4.39,23.07-.01l-4.57-9.95.44-21.73c3.97-.63,10.81-2.5,13.84.72,6.03,6.41,8.45,14.26,12.61,20.97ZM489.43,642.75c-8.38,6.15-18.83,7.15-28.43,6.84l.03-44.6c0-3.64,1.93-6.76,5.31-8.12,6.82-.24,14.27-1.64,20.81.71,6.95,2.51,9.99,9.95,11.32,16.83,2.08,10.24.11,21.63-9.04,28.34ZM907.61,638.22c.27.18.47.47.7.7l.48.49c1.97,1.99,4.72,1.77,6.75.41,2.23-1.5,2.85-3.91,1.21-6.37-.88-1.32-2.32-1.88-3.38-1.65-2.77.6-.16,6.17-3.44,6.32-.25.04-.48-.05-.57-.18l-.68-.99-.3-.34c-1.74-1.98-2.24-4.99-1.3-7.69.87-2.48,4.51-4.28,8.34-3.78,6.17.8,10.4,7.94,10.57,14.16.16,5.82-5.34,12.91-11.78,13.43l-10.84-7.15-24.72-13.85c-13.21-7.4-28.44-10.76-37.66.8l-9.45,6.18c-9.6,10.03-10.84,25.88-2.33,36.31,10.32,12.66,33.03,15.84,50.39,9.48l-21.25-1.13c-14.66-.78-37.67-14.07-32.23-31.73,1.84-5.99,5.1-10.06,11.98-11.76-1,8.32,3.77,13.84,11.19,16.5,17.81,6.37,36.85,8.46,55.84,6.52l16.37,10.04c.21.13.41.36.53.52l1.85-.55-1.55-1.21-11.95-9.53c3.28-2.93,6.89-1.94,10.24.03l19,11.21c11.54,6.8,24.75,7.35,38.7,7.92-10.16,3.22-20.66,2.97-31.36.53l-14.35-3.28-1.1-1.17c.81.77.3,2.52-1.53.57,1.53.53,1.86,1.26,1.98,1.38,17.29,9.06,38.22,12.12,57.11,4.3,16.7-6.92,31.34-18.06,28.15-34.96-2.93-15.52-26.7-28.14-44.78-19.16-8.11,4.03-11.45,12.58-7.52,20.25.39-.02.87.1,1.35.98-.93-.66.02-1.62.68-.64l-1.11-1.2c-.85-3.02-1.37-8.15,1.36-11.32,10.17-11.83,35.52-7.11,44.61,9.32,4.8,8.69-.52,18.79-9.55,22.49-28.14,11.54-56.15,3.82-81.51-12.06l6.16-7.91c4.85-8.08,2.74-18.34-3.5-24.99-4.25-4.53-11.11-4.9-15.03-1.28-4.13,3.82-4.17,10.41-1.34,14.55.14.21.35.38.58.53ZM877.96,649.88c-5.08-5.61-11.54-10.62-18.55-14.68l-9.72-3.18c5.2-1.93,10.88-.49,15.33,2.56l31.98,21.94c-17.33,1.97-34.93-1.27-51.3-8.73-3.06-1.39-5.86-6.6-2.81-8.68,4.65-3.18,11.59-1.27,16.03,1.35l17.51,10.33,1.53-.92ZM910.85,654.26c-2.71,1.7-6.23,2.48-8.66,2.02l-15.19-11.33-18.82-13.32c17.18,4.07,29.5,13.21,42.67,22.62ZM345.26,658.1c-.15-10.75-4.96-19.26-14.88-25.38,8.23-6.38,11.23-14.73,9.35-23.66-1.6-7.58-8.1-15.48-17.26-15.55l-48.84-.35,5.07,11.75.07,70.18c-.74,3.33-4.75,5.55-4.61,10.06,8.04,1.18,16.62.96,24.7-.42,5.77-.99,11.75,0,18.13.61,16.17,1.52,28.5-11.77,28.27-27.24ZM322.12,680.06c-4.49,2.05-28.74,4.39-28.82-5.83l-.24-29.02c-.06-7.74,9.35-2.71,21.49-8.79,3.81-1.91,7.83-.4,10.44,2.56,10.25,11.65,8.18,36.02-2.86,41.08ZM318.61,630.32c-7.22,5.7-15.85,6.37-25.39,7.1l.09-30.9c0-3.2,1.58-8.15,4.96-9.14,5.17-1.51,11.41-1.53,16.54-.05,6.87,1.98,10.51,8.77,11.47,14.49,1.17,6.96-1.72,13.81-7.67,18.5Z"/>
    <path class="cls-3" d="M919.87,540.71c0,7.78,7.49,8.74,5.85,15.11l-17.19.04-63.4-91.22-.84,73.75c-.05,4.7,1.42,8.63,4.85,11.58.99,1.07,1.5,2.26,1.42,3.33-.08.99-1.01,2.44-2.48,2.45l-12.36.1c-2.26-5.77,6.1-8.03,6.08-15.03l-.17-76.11c-.02-8.22-8.28-8-7.13-12.23.59-2.18,1.88-2.82,4.59-2.72l17.89.65,10.06,15.05,22.76,32.87c8.7,12.57,15.55,25.63,26.83,37.41l.32-71.08c.02-3.64-9.21-14.04-4.49-14.15l13.75-.32c1.43,5.6-6.32,8.64-6.32,15.81l-.02,74.71ZM786.71,522.34c-1.39-9.78-9.52-16.3-18.19-21.12l-29.46-16.38c-5.51-3.06-7.92-8.39-7.13-14.71.54-4.32,3.22-9.59,8.59-12.42,14.45-7.6,33.56-1.94,43.59,10.92.32.41-.04,2.47.27,2.7s1.14-.09,2.07-.27l-.15-20.54c-3.55,4.68-6.61,5.9-10.87,4.05-14.9-6.45-30.06-7.16-44.19.31-9.6,5.07-14.43,15.6-13.65,25.18.88,10.71,6.17,18.74,15.77,23.81l26.03,13.73c4.27,2.25,8.74,4.96,11.39,9.24,5.05,8.19.79,19.8-8.97,22.79-14.22,4.37-37.48,0-43.04-16.64-1.15,8.25-.76,14.78-.47,22.91,4.7-5.03,7.84-6.26,12.96-4.27,12.42,4.84,26.53,6.5,39.3,1.34s18.06-17.16,16.14-30.64ZM559.68,454.49c16.56,0,27.26,16.08,33.76,31.54,2.95-6.79,4.49-16.02.56-21.84-6.9-10.23-28.28-16.61-41.7-14.22-28.86,5.14-48.13,31.19-45.01,59.87s30.26,50.79,60.3,45.75c10.43-1.75,22.08-5.84,27.31-15.66,2.74-5.14,1.26-13.26-.23-19.55-5.35,7.43-7.29,15.47-13.56,21.19-7.57,6.9-15.74,10.93-25.93,9.52-27.55-3.82-42.52-47.7-23.5-79.32,5.97-9.93,16.34-17.28,28-17.28ZM822.98,550.81c-3.26-2.85-4.69-6.8-4.7-11.2l-.11-70.07c-.01-7.2,2.12-12.06,7.48-18.87l-27.44-.46c-2.63,4.72,4.38,7.2,4.37,15.73l-.09,74.77c-.01,9.22-6.43,10.92-5.12,15.28l25.67-.2c1.53-.01,1.25-3.83-.06-4.98ZM707.47,555.79c1.58-3.07-1.54-5.09-3.91-6.41-5.85-3.25-7.41-10.11-9.73-15.72l-11.44-27.67,7.01-1.02c2.18-.32,2.72-2.04,2.65-3.18-.29-4.35-7.04.48-12.09-1.14l-23.49-51.9-38.83,91.79c-2.35,5.56-7.16,8.24-12,11.08-1.04.61-.82,4.3.21,4.29l15.52-.17-1.44-9.9c8.8-19.29,26.08-30.61,46.15-36.6l16.59,39.49c-1.31,2.12-3.22,5.44-1.49,7.16l26.29-.12ZM664.2,504.52c-15.04,5.58-26.92,13.41-38.43,24.7l24.26-57.2,14.16,32.5ZM1025.14,540.56c18.28-20.67,20.07-52.34,1.08-73.43-16.26-18.07-43.72-22.77-64.5-10.14-22.17,13.48-30.9,40.7-22.85,64.82,6,17.98,20.78,29.64,38.83,33.66,12.23,2.73,27.79-.4,33.99-4.99l13.43-9.92ZM995.46,550.44c-29,1.45-49.32-34.58-43.44-66.67,2.37-12.94,10.2-24.65,23.4-27.81,10.59-2.54,21.75,1.74,29.93,9.37,16.88,15.75,23.73,40.84,16.97,63.06-3.62,11.9-13.85,21.39-26.86,22.04ZM814.59,433.99c4.21,3.65,7.3,3.11,11.21,1.28,7.16-3.34,7.91-14.81.79-23.52l-16.24-19.86-17.13,22.15c-3.72,4.81-5.09,11.14-2.54,16.67,1.47,3.19,4.53,4.84,7.17,5.65,2.85.87,5.49-.6,8.9-2.68,1.12,2.71,0,4.22-.92,7.21,3.36.79,5.39.63,9.53.43l-.78-7.33ZM825.22,425.92c-4.29,7.17-11.33.05-19.67,3.13-2.8,1.04-6.75-.23-8.28-1.92-6.41-7.11,4.91-18.23,13.38-27.72l13.45,17.22c1.97,2.53,2.8,6.48,1.12,9.29ZM88.42,550.62c-12.87-1.35-21.54-10.89-26.42-22.24-8.48-19.72-7.24-41.78,5.43-59.28,6.7-9.25,17.92-15.57,29.03-14.38,6.73.72,11.02,4.41,14.92,8.73,4.85,5.37,5.85,13.12-.09,18.08-5.35,4.47,7.45,6.09,20.99,4.26,4.95-24.53-28.83-41.42-51.03-35.28-22.79,6.31-40.26,26.16-40.9,50.25-.38,14.18,3.15,27.82,12.81,37.75,5.3,5.44,10.39,11.28,17.41,13.71,15.73,5.45,32.04,5.67,46.62-1.77l1.09,5.37,15.41-.17.1-55.74-39.76.15-.41,5.05,24.61.53-1.92,32.55c-3.72,10.7-18.19,13.44-27.89,12.42ZM439.04,470c.02-11.42,6.18-13.24,6.66-19.98l-13.97.19c-1.38.02-2,2.18-1.96,3.13.14,3.22,6.51,5.5,6.43,13.77l-.68,68.61-24.25-33.78-35.21-51.51-20.45-.18c-1.28-.01-2.36,1.09-2.47,1.77-.44,2.72,7.82,5.05,7.82,13.89l.05,73.72c0,8.13-8.03,11.53-6.1,16.32l14.39-.44c3.19-5.25-5.9-7.21-5.79-14.69l1.1-75.37,63.15,90.2c5.51.55,10.93.98,16.4-.13,5.83-1.18-5.27-7.44-5.26-14.81l.14-70.72ZM316.18,555.89h26.4s.52-5.11.52-5.11c-5.28-1.38-8.76-4.91-10.82-9.83l-14.04-33.45c3.39-3.6,10.36-1.23,10.02-5.75-.33-4.45-6.35-.25-12.5-.8l-23.27-52.51-11.34,25.23-28.6,67.89c-3.44,8.17-14.95,9.05-11.9,14.29l16.33.07c-2.99-7.48-1.71-12.6,2.41-18.15,10.18-13.72,24.84-23.53,41.6-28.11,3.22,3.83,3.6,7.85,5.28,11.69,3.87,8.83,8.85,17.08,10.91,27.21l-1.01,7.34ZM300.11,504.59c-14.96,4.7-26.26,12.76-38.26,23.7l23.61-56.38,14.65,32.68ZM198.98,555.93l31.13-.21c.51-1.72.46-3.08.34-4.62-13.34-1.48-22.43-23.64-30.48-38.15,17.42-4.34,27.68-18.88,25.82-36.56-1.51-14.33-15.77-27.03-28.83-27.07l-51.52-.16c-1.74,0-2.42,3.78-2.04,5,.8,2.55,5.87,4.62,5.89,11.77l.13,71.25c.02,12.54-7.14,13.33-5.8,18.85l26.9-.46c1.65-.03.28-4.83-1.38-5.91-2.93-1.91-3.86-5.51-3.81-8.75l.31-20.68c5.32-2.53,10.97-1.55,17.19-.97l16.92,29.46-.77,7.2ZM204.04,461.51c9.33,14.13,7.48,37.17-6.12,46.24-9.43,6.29-20.77,7.92-32.53,6.55l.04-50.76c0-5.88,4.4-9.57,9.94-9.67l13.37-.26c6.42-.13,11.83,2.67,15.29,7.91ZM637.78,682.64c.28-3.2-5.87-2.94-5.85-14.95l.06-62.76,6.4-11.18c-4.03-.7-7.92-1.01-12.08-.34-2.07.33-2.53,4.48-1.7,5.28l4.23,4.09c1.02,21.28,1.89,42.2.04,64.76l-52.15-74.36-17.54.27c-2.9,5.24,5.01,5.77,5.03,11.86l.23,67.14c.02,5.81-6.6,8.09-5.08,12.46,5.77,1.84,12.29.79,12.76-2.13.54-3.33-5.27-5.25-5.2-11.48l.71-65.19,54.98,78.87c8.16.84,14.87,1.26,15.18-2.35ZM789.66,638.39l-27.92-15.51c-4.1-2.28-5.61-7.04-5.32-11.27.26-3.71,1.97-7.53,5.32-10.18,11.78-9.34,33.86-2.78,41.03,11.11l.55-19.07c-3.92,4.18-6.57,5.13-10.63,3.39-9.39-4.03-19.83-4.98-29.69-2.56-10.07,2.47-16.73,10.12-18.66,19.48-1.92,9.26,2.37,20.03,11.14,25.03l30.76,17.53c4.67,2.66,6.53,7.6,5.44,12.91-2.85,13.81-23.27,15.03-37.36,7.03-4.04-2.3-6.58-5.57-9.06-9.59-2.5,6.06-1.75,12.16-.05,18.17,3.03-4.05,6.9-4.59,11.15-3.54l14.65,3.64c12.4,3.08,32.1-4.95,32.8-21.89.45-10.97-4.69-19.41-14.15-24.66ZM544.73,672.56l.07-60.39c0-6.99.51-12.11,6.28-18.63l-25.69-.03,4.85,10.72.14,69.31c0,4.26-5.88,8.61-3.94,11.22.42.57,1.93,1.19,3.09,1,10.81-1.82,17.87.88,19.55-1.86s-4.35-4.72-4.35-11.33ZM254.36,646.21c-1.92,5.74.32,10.58-2.27,14.84-9.5,15.64-32.14,20.19-51.14,19.62,18.43,6.74,45.71,1.42,53.56-18.39,2.05-5.17.94-11.27-.15-16.07ZM103.44,642.21c-1.85-.46-3.38.67-4.59,2.11-1.63,1.94-1.49,3.55-.9,4.91.99,2.27,2.58,2.74,4.36,2.75,2.44,0,3.85-.7,3.85-4.15,0-2.9-.96-5.19-2.71-5.62ZM980.75,653.08c.94-2.28.05-6.29-2.85-6.75-2.72-.42-4.29,2.06-5.1,3.64s-1.43,4,.89,5.68c3.06,2.2,6.09-.22,7.06-2.57ZM165.14,627.23c-2.08.09-3.26,1.05-3.64,3.5-.15.99-.65,3.39-.07,4.3.47.74,2.2.79,3.55.77.9-.01,1.45-1.97,2.07-3.51,1.1-2.75-.21-5.13-1.92-5.06ZM250.93,639.52v.82l.02.79.02-.79v-.82l-.02-.79-.02.79ZM166.96,636.91l.6.6.6-.6-.6-.6-.6.6ZM924.72,674.37l.6.6.6-.6-.6-.6-.6.6ZM191.76,659.82l11.8-1.44c17.78-2.17,37.79-6.62,38.54-23.29l7.19,3.88c.11-5.93-6.55-6.24-9.09-9.13-5.04-5.73-9.4-9.61-17.84-9.11-7.4.44-14.43,2.8-21.07,6.54l-37.39,21.06c-5.59-.52-10.21-7.22-10.49-11.42-.41-6.06,1.52-11.7,6.98-14.43,4.15-2.07,8.84-2.24,11.01,2.63,1.29,2.89.05,6.65-2.75,10.32,5.81-1.67,6.34-10.03,3.83-14.32-3.63-6.22-11.96-5.47-16.6-.61-9.06,9.48-9.29,22.75,1.81,32.02-4.62,4.13-10.55,6.35-16.42,9.05-15.31,7.03-30.36,10.59-47.11,8.06-5.93-.89-10.78-1.73-16.51-4.44-7.1-3.36-14.02-10.22-12.1-19.01s9.76-14.36,17.49-16.52l7.75-2.17c9.27-2.6,18.75.19,23.94,8.31-.64-7-6.21-10.6-12.22-12.4-13.2-3.94-27.64,1.54-36.4,12.29-9.99,12.27-4.13,27.42,7.97,35.52,36.27,24.24,65.48,11.3,99.59-12.11l18.11.73ZM201.02,646.51c12.26-4.57,28.09-17.74,35.01-12.11,1.83,1.49,1.89,5.12-.2,6.84-11.93,9.81-37,12.34-53.64,11.47l29.85-20.74c5.49-3.82,12.05-6.28,18.29-4.55-11.84,3.71-22.42,11.51-29.31,19.1ZM169.25,657.22c-16.23,16.96-47.85,27.25-67.75,19.35,25.11,1.16,39.71-7.89,58.91-20.28,2.39-1.54,6.98.52,8.84.93ZM177.58,651.35c-2.44,1.7-6.85-.02-8.52-1.39,12.88-9.26,24.86-18.44,40.95-21.21l-32.43,22.61ZM429.21,685.7c1.69.03,3.06-.8,3.43-1.74,1.44-3.62-5.08-2.81-9.25-12.92l-11.66-28.27c3.3-1.88,5.91-1.45,8.89-4.51-3.39-2.19-7.41-2.32-11.8-.84l-18.47-43.43c-.35-.82-1.95-.95-2.4-.59-.3.24-.47,1.35-.77,2.06l-33.26,77.92-10.32,11.22c4.97,2.09,9.89,1.8,14.6-.02-5.86-17.42,20.07-34.88,38.19-39.68,3.31,3.51,3.12,7.53,4.78,11.03l6.66,14.04c2.28,4.8,3.41,8.93,1.54,15.33l19.82.39ZM395.55,640.94c-12.86,3.85-22.22,10.38-32.89,19.79l20.19-47.43,12.7,27.64ZM730.27,685.88c1.92.07,3.88-.25,4.7-1.8.45-.86.75-2.23.52-3.72-3.55-.2-6.48-2.01-7.91-5.3l-12.05-27.82c-.76-1.75-1.81-3.52-.41-4.96s5.36-.96,6.29-3.12c1.87-4.38-5.73-.88-8.48-1.71-1.38-.41-2.36-2.11-3.15-3.91l-18.2-41.4-32.27,74.71c-1.93,4.46-3.36,9.27-7.75,11.87-2,1.18-5.95,2.68-4.77,6.02,4.07,1.47,9.98,1.1,14.05-.33l-1.11-9.43c8.55-14.78,22.16-25.6,39.28-30.13l13.16,30.2c1.36,3.13.44,6.15-.59,10.11l18.7.72ZM697.78,640.54c-13.59,4.73-23.29,11.72-33.24,21.6l20.87-49.07,12.37,27.46ZM488.29,675.11c1.8,2.9,1.97,5.88,1.49,9.95l22.51.37c2.2.04,5.51-2.07,4.57-4.42-2.71-1.16-6.69-1.98-9.05-4.96-6.82-8.63-12.66-17.97-16.29-28.51,13.56-3.84,22.03-14.87,22.11-27.72.07-11.68-9.05-25.8-22.05-25.99l-49.72-.73c-.18,5.08,3.49,6.39,4.23,9.8l.02,74.98c-2.46,1.7-4.73,5.54-3.19,7.22,7.34,1.57,15.4.39,23.07-.01l-4.57-9.95.44-21.73c3.97-.63,10.81-2.5,13.84.72,6.03,6.41,8.45,14.26,12.61,20.97ZM489.43,642.75c-8.38,6.15-18.83,7.15-28.43,6.84l.03-44.6c0-3.64,1.93-6.76,5.31-8.12,6.82-.24,14.27-1.64,20.81.71,6.95,2.51,9.99,9.95,11.32,16.83,2.08,10.24.11,21.63-9.04,28.34ZM907.61,638.22c.27.18.47.47.7.7l.48.49c1.97,1.99,4.72,1.77,6.75.41,2.23-1.5,2.85-3.91,1.21-6.37-.88-1.32-2.32-1.88-3.38-1.65-2.77.6-.16,6.17-3.44,6.32-.25.04-.48-.05-.57-.18l-.68-.99-.3-.34c-1.74-1.98-2.24-4.99-1.3-7.69.87-2.48,4.51-4.28,8.34-3.78,6.17.8,10.4,7.94,10.57,14.16.16,5.82-5.34,12.91-11.78,13.43l-10.84-7.15-24.72-13.85c-13.21-7.4-28.44-10.76-37.66.8l-9.45,6.18c-9.6,10.03-10.84,25.88-2.33,36.31,10.32,12.66,33.03,15.84,50.39,9.48l-21.25-1.13c-14.66-.78-37.67-14.07-32.23-31.73,1.84-5.99,5.1-10.06,11.98-11.76-1,8.32,3.77,13.84,11.19,16.5,17.81,6.37,36.85,8.46,55.84,6.52l16.37,10.04c.21.13.41.36.53.52l1.85-.55-1.55-1.21-11.95-9.53c3.28-2.93,6.89-1.94,10.24.03l19,11.21c11.54,6.8,24.75,7.35,38.7,7.92-10.16,3.22-20.66,2.97-31.36.53l-14.35-3.28-1.1-1.17c.81.77.3,2.52-1.53.57,1.53.53,1.86,1.26,1.98,1.38,17.29,9.06,38.22,12.12,57.11,4.3,16.7-6.92,31.34-18.06,28.15-34.96-2.93-15.52-26.7-28.14-44.78-19.16-8.11,4.03-11.45,12.58-7.52,20.25.39-.02.87.1,1.35.98-.93-.66.02-1.62.68-.64l-1.11-1.2c-.85-3.02-1.37-8.15,1.36-11.32,10.17-11.83,35.52-7.11,44.61,9.32,4.8,8.69-.52,18.79-9.55,22.49-28.14,11.54-56.15,3.82-81.51-12.06l6.16-7.91c4.85-8.08,2.74-18.34-3.5-24.99-4.25-4.53-11.11-4.9-15.03-1.28-4.13,3.82-4.17,10.41-1.34,14.55.14.21.35.38.58.53ZM877.96,649.88c-5.08-5.61-11.54-10.62-18.55-14.68l-9.72-3.18c5.2-1.93,10.88-.49,15.33,2.56l31.98,21.94c-17.33,1.97-34.93-1.27-51.3-8.73-3.06-1.39-5.86-6.6-2.81-8.68,4.65-3.18,11.59-1.27,16.03,1.35l17.51,10.33,1.53-.92ZM910.85,654.26c-2.71,1.7-6.23,2.48-8.66,2.02l-15.19-11.33-18.82-13.32c17.18,4.07,29.5,13.21,42.67,22.62ZM345.26,658.1c-.15-10.75-4.96-19.26-14.88-25.38,8.23-6.38,11.23-14.73,9.35-23.66-1.6-7.58-8.1-15.48-17.26-15.55l-48.84-.35,5.07,11.75.07,70.18c-.74,3.33-4.75,5.55-4.61,10.06,8.04,1.18,16.62.96,24.7-.42,5.77-.99,11.75,0,18.13.61,16.17,1.52,28.5-11.77,28.27-27.24ZM322.12,680.06c-4.49,2.05-28.74,4.39-28.82-5.83l-.24-29.02c-.06-7.74,9.35-2.71,21.49-8.79,3.81-1.91,7.83-.4,10.44,2.56,10.25,11.65,8.18,36.02-2.86,41.08ZM318.61,630.32c-7.22,5.7-15.85,6.37-25.39,7.1l.09-30.9c0-3.2,1.58-8.15,4.96-9.14,5.17-1.51,11.41-1.53,16.54-.05,6.87,1.98,10.51,8.77,11.47,14.49,1.17,6.96-1.72,13.81-7.67,18.5Z"/>
  </g>
</svg>